<?xml version="1.0" encoding="UTF-8"?>
<svg version="1.1" xmlns="http://www.w3.org/2000/svg" width="107" height="125">
<path d="M0 0 C1.91894531 0.20898438 1.91894531 0.20898438 4 1 C5.24511719 2.58789062 5.24511719 2.58789062 6.296875 4.65625 C6.89266357 5.80613403 6.89266357 5.80613403 7.50048828 6.97924805 C7.91282715 7.81109619 8.32516602 8.64294434 8.75 9.5 C9.18683105 10.3556958 9.62366211 11.2113916 10.07373047 12.09301758 C13.1550431 18.17426027 16.12263617 24.31274488 18.95996094 30.51171875 C23.57331529 40.56579406 28.66447769 50.40130623 33.70184326 60.24772644 C35.39947977 63.56955697 37.08836513 66.89579767 38.77612305 70.22265625 C39.64571084 71.93113468 40.51952556 73.63746723 41.3972168 75.34179688 C42.68357899 77.84212347 43.95453043 80.34976088 45.22265625 82.859375 C45.81615623 83.9999234 45.81615623 83.9999234 46.42164612 85.16351318 C49.09116947 90.49914865 49.09116947 90.49914865 48.59397888 93.23052979 C48.29995934 94.10641754 48.29995934 94.10641754 48 95 C41.33234454 96.95885051 35.67058452 93.72426755 29.4375 91.375 C28.20580078 90.93542969 26.97410156 90.49585937 25.70507812 90.04296875 C24.52236328 89.60339844 23.33964844 89.16382812 22.12109375 88.7109375 C20.50352173 88.11224854 20.50352173 88.11224854 18.85327148 87.50146484 C12.44677579 84.13020203 8.66316044 76.52044766 6 70 C4.25416128 60.63240267 7.90369816 53.17867068 12 45 C7.81040728 50.41715213 4.3690057 55.94401849 1.53515625 62.1796875 C1.10642715 63.11763153 1.10642715 63.11763153 0.66903687 64.07452393 C-0.50480677 66.66130233 -1.66675404 69.25238398 -2.79956055 71.85742188 C-8.23161042 84.26826438 -8.23161042 84.26826438 -12.7734375 86.6171875 C-14.16979653 87.11469619 -15.58033564 87.57351841 -17 88 C-18.73619448 88.70591229 -20.46910377 89.41994088 -22.19921875 90.140625 C-24.02695426 90.84813552 -25.85641252 91.55121043 -27.6875 92.25 C-28.61111328 92.61351563 -29.53472656 92.97703125 -30.48632812 93.3515625 C-31.38158203 93.69445312 -32.27683594 94.03734375 -33.19921875 94.390625 C-34.00190186 94.70032227 -34.80458496 95.01001953 -35.6315918 95.32910156 C-38.24027675 96.06806314 -40.30249428 96.26173425 -43 96 C-43.66 95.34 -44.32 94.68 -45 94 C-44.64878905 89.6669589 -42.76524087 86.13310974 -40.859375 82.27734375 C-40.54097153 81.62800873 -40.22256805 80.97867371 -39.89451599 80.30966187 C-39.20873246 78.91201112 -38.52045202 77.5155833 -37.82992554 76.12026978 C-35.99001379 72.40139878 -34.16891762 68.67334411 -32.34765625 64.9453125 C-31.9784053 64.19028946 -31.60915436 63.43526642 -31.22871399 62.65736389 C-27.78030846 55.58798285 -24.47053447 48.46005469 -21.1875 41.3125 C-17.20557807 32.66593552 -13.13205381 24.07732033 -8.875 15.5625 C-8.42535889 14.66249268 -7.97571777 13.76248535 -7.51245117 12.83520508 C-2.09706428 2.09706428 -2.09706428 2.09706428 0 0 Z " fill="#FEFEFE" transform="translate(52,10)"/>
</svg>
