<?xml version="1.0" encoding="UTF-8"?>
<svg version="1.1" xmlns="http://www.w3.org/2000/svg" width="500" height="159">
<path d="M0 0 C1.13115234 -0.00855011 1.13115234 -0.00855011 2.28515625 -0.01727295 C3.88914582 -0.0267437 5.49315504 -0.03326513 7.09716797 -0.03710938 C9.52477462 -0.04672556 11.95150182 -0.07768953 14.37890625 -0.109375 C24.83882165 -0.18095622 34.10067182 0.08749676 42.5625 7.203125 C47.65880885 14.02582574 49.26212449 19.71693906 48.5625 28.203125 C46.90011012 33.6520696 43.99097883 38.54649433 39.5625 42.203125 C37.57333206 42.90144825 35.57372869 43.57114114 33.5625 44.203125 C34.01689453 44.97503174 34.47128906 45.74693848 34.93945312 46.54223633 C36.62192624 49.40740176 38.29850275 52.2758486 39.97119141 55.14672852 C40.6963929 56.38865635 41.42391945 57.62922953 42.15380859 58.8684082 C43.20243444 60.64964545 44.24260712 62.43558415 45.28125 64.22265625 C45.90966797 65.29620361 46.53808594 66.36975098 47.18554688 67.47583008 C48.5625 70.203125 48.5625 70.203125 48.5625 73.203125 C45.33456203 73.43641586 42.10878768 73.57780174 38.875 73.703125 C37.96298828 73.77015625 37.05097656 73.8371875 36.11132812 73.90625 C29.51506463 74.0981413 29.51506463 74.0981413 26.98242188 71.71850586 C25.64060175 69.60808821 24.59771274 67.47913134 23.5625 65.203125 C22.71451628 63.63713687 21.85757489 62.07596945 20.9921875 60.51953125 C19.69717717 58.11762372 18.40952951 55.71258186 17.13671875 53.29882812 C16.71777344 52.52603516 16.29882812 51.75324219 15.8671875 50.95703125 C15.49577637 50.25908447 15.12436523 49.5611377 14.74169922 48.84204102 C13.573925 46.88172053 13.573925 46.88172053 10.5625 46.203125 C10.5625 55.113125 10.5625 64.023125 10.5625 73.203125 C7.613125 73.22375 4.66375 73.244375 1.625 73.265625 C0.22906616 73.27928101 0.22906616 73.27928101 -1.19506836 73.29321289 C-2.28766968 73.29695923 -2.28766968 73.29695923 -3.40234375 73.30078125 C-4.1512085 73.30601807 -4.90007324 73.31125488 -5.67163086 73.31665039 C-7.4375 73.203125 -7.4375 73.203125 -8.4375 72.203125 C-8.53710152 69.99987526 -8.56549757 67.7933901 -8.56689453 65.58789062 C-8.56864685 64.89684738 -8.57039917 64.20580414 -8.57220459 63.49382019 C-8.57662254 61.19897993 -8.57368533 58.90421611 -8.5703125 56.609375 C-8.57098556 55.02136215 -8.57195559 53.43334941 -8.57321167 51.84533691 C-8.57468857 48.5129295 -8.57253436 45.18054884 -8.56787109 41.84814453 C-8.5621738 37.5671399 -8.56545285 33.28619795 -8.57144356 29.00519562 C-8.5750494 25.72478764 -8.57391048 22.44439463 -8.57131577 19.16398621 C-8.57064656 17.5850575 -8.5714747 16.00612746 -8.57379532 14.42720032 C-8.57632223 12.22421647 -8.57248075 10.02133551 -8.56689453 7.81835938 C-8.56609894 6.56228882 -8.56530334 5.30621826 -8.56448364 4.01208496 C-8.31839554 -1.43154246 -4.44788536 0.02581712 0 0 Z M10.5625 17.203125 C10.48936433 19.73361902 10.47002473 22.23617337 10.5 24.765625 C10.50451172 25.47654297 10.50902344 26.18746094 10.51367188 26.91992188 C10.52549136 28.68102513 10.54342737 30.44208536 10.5625 32.203125 C19.65826214 33.03516953 19.65826214 33.03516953 27.9375 30.078125 C29.84321139 26.70648177 30.21100195 25.01307395 29.5625 21.203125 C27.78265595 18.0672093 27.03941793 17.36209764 23.5625 16.203125 C21.52257192 16.10914457 19.47958586 16.07320431 17.4375 16.078125 C15.82488281 16.07425781 15.82488281 16.07425781 14.1796875 16.0703125 C11.63593604 15.90623525 11.63593604 15.90623525 10.5625 17.203125 Z " fill="#FEFEFE" transform="translate(129.4375,39.796875)"/>
<path d="M0 0 C1.26633302 0.80829767 2.52334569 1.63266867 3.75 2.5 C4.41 1.18 5.07 -0.14 5.75 -1.5 C11.69 -1.5 17.63 -1.5 23.75 -1.5 C23.77255577 5.91460363 23.79091784 13.32918865 23.80181217 20.74381924 C23.80703982 24.18640348 23.81413531 27.62896312 23.82543945 31.0715332 C23.83834235 35.02555043 23.84322918 38.97955756 23.84765625 42.93359375 C23.85281754 44.17523788 23.85797882 45.41688202 23.86329651 46.69615173 C23.86337204 47.83725906 23.86344757 48.97836639 23.86352539 50.15405273 C23.865746 51.164431 23.86796661 52.17480927 23.87025452 53.21580505 C23.75 55.5 23.75 55.5 22.75 56.5 C19.88732433 56.57325168 17.049281 56.59238205 14.1875 56.5625 C13.38119141 56.55798828 12.57488281 56.55347656 11.74414062 56.54882812 C9.74606244 56.53700518 7.74802217 56.51906914 5.75 56.5 C5.09 54.85 4.43 53.2 3.75 51.5 C2.698125 52.428125 2.698125 52.428125 1.625 53.375 C-3.53406513 57.18822205 -8.89217418 58.40826083 -15.25 57.5 C-21.44384249 55.75059411 -26.07556303 53.53387988 -30.25 48.5 C-30.971875 47.695625 -31.69375 46.89125 -32.4375 46.0625 C-37.83167816 38.43624812 -37.9362842 27.71854111 -36.6875 18.75 C-35.22259337 11.96985782 -31.72985407 6.91626807 -26.8125 2.125 C-18.33930451 -3.24824592 -9.17703202 -5.0951345 0 0 Z M-16.25 18.5 C-18.78188571 23.4486857 -18.67194211 28.2265723 -17.25 33.5 C-15.89219767 36.42262385 -14.86582444 37.3201463 -12.25 39.5 C-9.17076303 40.55476626 -6.48563326 40.84748878 -3.25 40.5 C0.87334077 38.47581453 3.07112609 36.74255974 4.75 32.5 C5.37941829 28.11394833 5.79352395 23.50170394 3.69921875 19.484375 C1.40760273 16.69928415 -0.60048113 14.69768301 -4.23828125 14.26171875 C-9.50777495 14.0934492 -12.59399827 14.29005862 -16.25 18.5 Z " fill="#FEFEFE" transform="translate(467.25,56.5)"/>
<path d="M0 0 C0.804375 -0.00128906 1.60875 -0.00257812 2.4375 -0.00390625 C3.283125 -0.00003906 4.12875 0.00382812 5 0.0078125 C6.2684375 0.00201172 6.2684375 0.00201172 7.5625 -0.00390625 C8.366875 -0.00261719 9.17125 -0.00132813 10 0 C10.7425 0.00112793 11.485 0.00225586 12.25 0.00341797 C14 0.1328125 14 0.1328125 15 1.1328125 C15.1009825 3.77569607 15.13970742 6.39188209 15.1328125 9.03515625 C15.13424759 10.22450523 15.13424759 10.22450523 15.13571167 11.43788147 C15.13639351 13.1183378 15.13453896 14.79879675 15.13037109 16.47924805 C15.1250299 19.05588695 15.13031228 21.63235098 15.13671875 24.20898438 C15.13605783 25.83854205 15.13477638 27.46809962 15.1328125 29.09765625 C15.13483673 29.87165268 15.13686096 30.64564911 15.13894653 31.44309998 C15.11495583 36.90290084 15.11495583 36.90290084 14 39.1328125 C17.99026811 35.37220011 21.13186699 31.38263319 24.25 26.8828125 C28.92567568 20.20713682 28.92567568 20.20713682 30 19.1328125 C31.63472882 19.04580908 33.27314055 19.02580187 34.91015625 19.03515625 C36.39418945 19.03999023 36.39418945 19.03999023 37.90820312 19.04492188 C38.94912109 19.05330078 39.99003906 19.06167969 41.0625 19.0703125 C42.62967773 19.07708008 42.62967773 19.07708008 44.22851562 19.08398438 C46.8190666 19.09581337 49.40950559 19.11229561 52 19.1328125 C51.12404652 23.6867857 48.45294592 26.3889512 45.4375 29.7578125 C44.34633854 31.00144925 43.25650145 32.2462492 42.16796875 33.4921875 C41.63091309 34.10513672 41.09385742 34.71808594 40.54052734 35.34960938 C37.23515094 39.17567423 34.11767234 43.15319545 31 47.1328125 C32.71667453 51.33142611 35.66560088 54.39866685 38.625 57.7578125 C43.56823668 63.43940227 48.35479841 69.20334929 53 75.1328125 C52.67 75.7928125 52.34 76.4528125 52 77.1328125 C48.58362047 77.24913763 45.16775103 77.32010147 41.75 77.3828125 C40.78191406 77.41632813 39.81382812 77.44984375 38.81640625 77.484375 C31.67564481 77.58286826 31.67564481 77.58286826 28.6484375 75.56640625 C28.10445313 74.76332031 27.56046875 73.96023437 27 73.1328125 C26.60619141 72.59640137 26.21238281 72.05999023 25.80664062 71.50732422 C23.99787967 69.04077092 22.27119915 66.51997454 20.53515625 64.00195312 C18.26818917 60.53151639 18.26818917 60.53151639 15 58.1328125 C15.01160156 59.42058594 15.02320313 60.70835938 15.03515625 62.03515625 C15.0445327 63.71354022 15.05363305 65.39192576 15.0625 67.0703125 C15.07087891 67.92044922 15.07925781 68.77058594 15.08789062 69.64648438 C15.09272461 70.85981445 15.09272461 70.85981445 15.09765625 72.09765625 C15.10551147 73.22095337 15.10551147 73.22095337 15.11352539 74.36694336 C15 76.1328125 15 76.1328125 14 77.1328125 C12.66956375 77.2311846 11.33406656 77.26359842 10 77.265625 C9.195625 77.26691406 8.39125 77.26820312 7.5625 77.26953125 C6.716875 77.26566406 5.87125 77.26179688 5 77.2578125 C4.154375 77.26167969 3.30875 77.26554687 2.4375 77.26953125 C1.633125 77.26824219 0.82875 77.26695313 0 77.265625 C-0.7425 77.26449707 -1.485 77.26336914 -2.25 77.26220703 C-4 77.1328125 -4 77.1328125 -5 76.1328125 C-5.10023555 73.79566925 -5.13619203 71.48806925 -5.12939453 69.15039062 C-5.13114685 68.4203331 -5.13289917 67.69027557 -5.13470459 66.93809509 C-5.13912299 64.51339372 -5.13618517 62.08876468 -5.1328125 59.6640625 C-5.13348554 57.98636867 -5.13445557 56.30867494 -5.13571167 54.63098145 C-5.13718863 51.11026076 -5.13503416 47.5895654 -5.13037109 44.06884766 C-5.1246738 39.54570754 -5.12795282 35.02262676 -5.13394356 30.49948883 C-5.13754923 27.03378855 -5.13641056 23.56810243 -5.13381577 20.10240173 C-5.13314651 18.43415825 -5.13397486 16.76591351 -5.13629532 15.09767151 C-5.13882195 12.77015756 -5.13498113 10.44274102 -5.12939453 8.11523438 C-5.13141876 7.41909531 -5.13344299 6.72295624 -5.13552856 6.00572205 C-5.10872439 0.00776065 -5.10872439 0.00776065 0 0 Z " fill="#FDFDFD" transform="translate(317,35.8671875)"/>
<path d="M0 0 C3.35159785 1.67174691 4.46343291 4.74661946 6.04614258 7.97949219 C6.39799118 8.67649231 6.74983978 9.37349243 7.11235046 10.09161377 C7.85278973 11.56772931 8.58617008 13.04740369 9.31298828 14.53027344 C10.426735 16.79515886 11.56945358 19.04360034 12.71606445 21.29199219 C13.43205392 22.7285981 14.14630519 24.1660719 14.85864258 25.60449219 C15.37253288 26.61101837 15.37253288 26.61101837 15.89680481 27.63787842 C17.30467712 30.55464809 18.14366855 32.65000201 17.95703125 35.9140625 C16.76679638 38.96345326 14.69999242 40.03877546 12.12036133 42.05761719 C4.50810394 50.22551381 -0.44871418 60.5440042 -4.95385742 70.66308594 C-5.29747314 71.42685547 -5.64108887 72.190625 -5.99511719 72.97753906 C-6.6515534 74.45202021 -7.29231101 75.93361658 -7.91455078 77.42285156 C-11.00731287 84.39628779 -15.62417663 86.61512987 -22.53979492 89.45214844 C-24.67081304 90.26628973 -26.80503839 91.07207794 -28.94213867 91.87011719 C-30.01786133 92.28970703 -31.09358398 92.70929688 -32.2019043 93.14160156 C-33.2415332 93.53283203 -34.28116211 93.9240625 -35.35229492 94.32714844 C-36.76393921 94.86239136 -36.76393921 94.86239136 -38.20410156 95.40844727 C-41.15703065 96.12492125 -42.98208474 95.87549898 -45.87963867 95.05761719 C-47.20447625 91.08310445 -46.18356478 89.94389783 -44.41479492 86.20214844 C-43.59192993 84.44511597 -43.59192993 84.44511597 -42.75244141 82.65258789 C-42.14935408 81.39159834 -41.54591234 80.13077825 -40.94213867 78.87011719 C-40.33219634 77.57900092 -39.72290486 76.28757699 -39.11425781 74.99584961 C-35.79782668 67.97874129 -32.41866312 60.99380462 -28.90478516 54.07324219 C-25.84880707 48.04830585 -22.92447287 41.96200936 -20.00463867 35.87011719 C-19.49618408 34.81018555 -18.98772949 33.75025391 -18.46386719 32.65820312 C-15.94470957 27.39825644 -13.43991376 22.13200804 -10.95776367 16.85449219 C-10.50127441 15.88664795 -10.04478516 14.91880371 -9.57446289 13.92163086 C-8.71290595 12.09285433 -7.85498902 10.26235725 -7.0012207 8.42993164 C-6.42670166 7.21116333 -6.42670166 7.21116333 -5.84057617 5.96777344 C-5.50848145 5.25758057 -5.17638672 4.5473877 -4.83422852 3.81567383 C-3.57009545 1.48753516 -2.77508414 0.08506557 0 0 Z " fill="#FEFEFE" transform="translate(56.879638671875,28.9423828125)"/>
<path d="M0 0 C6.13596178 4.85011685 9.20580216 10.88558333 10.75 18.4921875 C11.58584669 27.71390587 10.67460951 36.22098511 5.01953125 43.81640625 C-0.7399168 50.03569047 -7.98072182 53.81050128 -16.44140625 54.73046875 C-25.38900748 55.01054194 -34.38045064 52.40319509 -41.25 46.4921875 C-48.19579395 37.88944511 -50.34594007 29.4652875 -49.25 18.4921875 C-47.37080621 10.3668098 -44.03533025 3.68795588 -37.00390625 -1.0078125 C-25.20765838 -7.82600503 -11.42048212 -7.6533092 0 0 Z M-26.25 13.4921875 C-29.99159093 17.62763011 -30.83800387 20.90945302 -30.57421875 26.3125 C-29.95682065 30.46320049 -28.33089856 33.3340819 -25.5 36.3671875 C-22.24319286 37.99559107 -19.84414313 37.87051836 -16.25 37.4921875 C-12.0925204 35.69691222 -9.9497945 33.69694232 -8.25 29.4921875 C-7.56682421 24.5100031 -7.71853007 20.66142135 -9.8125 16.0546875 C-12.83612118 12.87600882 -15.12318639 11.89374684 -19.25 10.4921875 C-21.84475585 10.4921875 -24.11136988 12.23416978 -26.25 13.4921875 Z " fill="#FDFDFD" transform="translate(233.25,59.5078125)"/>
<path d="M0 0 C5.24381595 3.92510484 8.920974 8.80857503 10.37890625 15.2265625 C10.46527344 16.1340625 10.55164063 17.0415625 10.640625 17.9765625 C8.47088377 20.14630373 3.82028632 19.30057292 0.828125 19.3515625 C0.00763672 19.38894531 -0.81285156 19.42632812 -1.65820312 19.46484375 C-3.99547848 19.49896456 -6.07214091 19.46564068 -8.359375 18.9765625 C-10.71484375 16.51171875 -10.71484375 16.51171875 -12.359375 13.9765625 C-15.74107843 13.07074908 -18.18392303 12.71535095 -21.609375 13.4765625 C-25.32718147 16.66325376 -26.23532392 20.81875241 -26.734375 25.4765625 C-26.2091571 30.37859625 -24.93055213 34.40538537 -21.359375 37.9765625 C-18.91924551 38.21943739 -18.91924551 38.21943739 -16.234375 38.1015625 C-15.32429688 38.08351562 -14.41421875 38.06546875 -13.4765625 38.046875 C-12.77789062 38.02367187 -12.07921875 38.00046875 -11.359375 37.9765625 C-10.699375 36.3265625 -10.039375 34.6765625 -9.359375 32.9765625 C-2.759375 32.9765625 3.840625 32.9765625 10.640625 32.9765625 C9.39684989 40.43921319 6.69274649 46.17964517 0.49609375 50.87890625 C-8.24742252 56.0513864 -16.67773815 57.33215831 -26.421875 54.8515625 C-33.78983687 52.39176157 -39.54651549 48.11888089 -43.390625 41.30078125 C-47.03158195 32.56542082 -47.49947193 22.26770951 -44.453125 13.3125 C-41.0830257 5.77531846 -35.98436947 0.15058444 -28.234375 -2.9609375 C-18.36083303 -5.64599711 -8.94178518 -5.04469698 0 0 Z " fill="#FDFDFD" transform="translate(294.359375,58.0234375)"/>
<path d="M0 0 C4.24262671 3.55463319 6.03007063 7.81622414 8.25 12.75 C9.04282502 14.46811583 9.8371206 16.18555375 10.6328125 17.90234375 C11.02887695 18.76069824 11.42494141 19.61905273 11.83300781 20.50341797 C13.53256981 24.13934286 15.31902617 27.72852096 17.125 31.3125 C17.44758789 31.95711182 17.77017578 32.60172363 18.10253906 33.26586914 C19.72575574 36.50206526 21.37392456 39.72298973 23.0546875 42.9296875 C23.38194824 43.56221436 23.70920898 44.19474121 24.04638672 44.84643555 C24.94019844 46.57204593 25.84472255 48.29209573 26.75 50.01171875 C27.98892268 52.97351828 28.28180191 54.83559941 28 58 C22.18723917 59.93758694 14.90208854 55.81034192 9.25146484 53.78027344 C7.33070173 53.11460884 5.3800833 52.536155 3.42578125 51.9765625 C-4.2018218 49.53494821 -7.08277804 45.82563731 -10.68017578 38.98828125 C-13.88948597 32.4960448 -15.25615193 27.14586466 -13.12890625 20.125 C-10.49267 13.34857634 -7.19137095 7.17829445 -2 2 C-1.34 2 -0.68 2 0 2 C0 1.34 0 0.68 0 0 Z " fill="#FEFEFE" transform="translate(75,66)"/>
<path d="M0 0 C2 2 2 2 2.24723816 4.35975647 C2.24581314 5.34713303 2.24438812 6.33450958 2.24291992 7.35180664 C2.24599655 8.46959 2.24907318 9.58737335 2.25224304 10.73902893 C2.24505753 11.95050095 2.23787201 13.16197296 2.23046875 14.41015625 C2.22978142 16.26682167 2.22978142 16.26682167 2.2290802 18.16099548 C2.2252786 21.45358047 2.21225824 24.74597359 2.19561768 28.03851318 C2.18216164 31.39351647 2.18534184 34.7484863 2.18554688 38.10351562 C2.18063168 40.64323117 2.17480335 43.18294515 2.16796875 45.72265625 C2.16685593 46.9361525 2.1657431 48.14964874 2.16459656 49.3999176 C2.15821671 50.5145488 2.15183685 51.62917999 2.14526367 52.77758789 C2.13954597 54.25745934 2.13954597 54.25745934 2.13371277 55.76722717 C2 58 2 58 1 59 C-4.94 59 -10.88 59 -17 59 C-17 39.86 -17 20.72 -17 1 C-3.25 -0.25 -3.25 -0.25 0 0 Z " fill="#FDFDFD" transform="translate(421,54)"/>
<path d="M0 0 C3.49406513 3.05730699 4.80770576 4.92315225 5.625 9.5 C4.80770576 14.07684775 3.49406513 15.94269301 0 19 C-4.12668642 20.51679029 -7.17804431 20.27915476 -11.3125 18.875 C-14.38197748 16.73350408 -15.67517557 15.5068882 -17 12 C-17.19815615 7.85523396 -16.68045799 4.91509868 -14.1875 1.5625 C-9.77887324 -1.58651912 -5.16223577 -1.6457821 0 0 Z " fill="#FDFDFD" transform="translate(390,94)"/>
<path d="M0 0 C2.96922861 1.79349379 5.42452071 3.84904142 7 7 C7.39447548 11.18144011 7.45035186 13.30946048 5.125 16.875 C2.12611304 19.87388696 0.33295137 20.21340819 -3.8125 20.375 C-7.63964815 20.32522495 -8.7793885 20.14857509 -12.0625 17.9375 C-14.38260827 14.41991649 -15 12.20972566 -15 8 C-12.22136284 1.20777584 -7.09635607 -0.9959798 0 0 Z " fill="#FDFDFD" transform="translate(417,30)"/>
</svg>
